<svg xmlns="http://www.w3.org/2000/svg" height="1200" width="1600" version="1.1" xmlns:xlink="http://www.w3.org/1999/xlink" xmlns:svgjs="http://svgjs.com/svgjs"><rect fill="#fffcf2" width="1600" height="1200"></rect><g><path d="M185.71 231.89C190.23 209.66 204.4 189.42 223.71 177.83 241.99 166.98 262.12 165.2 282.65 165.41 333.69 165.83 384.73 166.46 435.77 167.6 642.69 171.78 849.92 180.44 1056.43 195.47 1107.26 199.23 1158.29 203.3 1209.13 207.68 1234.7 209.87 1259.96 212.27 1285.53 214.67 1320.96 218.11 1365.52 215.3 1392.33 242.32 1419.33 269.35 1416.15 308.8 1414.4 344.07 1413.07 369.54 1410.5 394.89 1407.32 419.94 1400.23 473.79 1390.79 527.43 1381.54 580.75 1377.85 601.42 1374.66 622.39 1371.68 643.06 1366.14 689.08 1364.6 734.79 1362.85 781.02 1360.7 837.06 1353 890.38 1329.38 941.41 1326.19 948.61 1320.13 955.19 1313.05 960.41 1310.89 965.83 1307.91 971.26 1303.81 976.58 1291.18 993.38 1272.69 1002.98 1251.64 1003.19 1044 1004.97 836.67 1004.24 629.03 1001 576.86 1000.17 525 999.23 472.94 998.18 447.16 997.56 421.7 997.14 395.92 996.41 360.29 995.57 319.52 999.43 292.31 971.15 268.69 946.53 267.46 907.29 261.81 875.04 257.49 849.58 253.18 824.01 249.18 798.55 241.06 746.89 233.26 695.03 226.28 643.16 211.49 534.84 198.65 426.31 188.28 317.57 185.92 289.81 179.86 259.96 185.71 231.89Z" fill="#f9edda" opacity="1" stroke-width="2" stroke="none"></path></g><g><path d="M638.43 223.62L667.83 183.68 694.09 223.62" stroke="#04051f" stroke-width="2" stroke-linecap="round" stroke-linejoin="round" opacity="1" fill="none"></path><path d="M667.83 186.85C669.58 186.85 671 185.43 671 183.67 671 181.92 669.58 180.5 667.83 180.5 666.08 180.5 664.66 181.92 664.66 183.67 664.66 185.43 666.08 186.85 667.83 186.85Z" fill="#000000" opacity="1" stroke-width="2" stroke="none"></path><path d="M772.04 492.78H560.46V235.25C560.46 235.25 579.11 229.93 667.82 229.93 758.78 229.93 772.04 235.41 772.04 235.41V492.78Z" fill="#d5e0f5" opacity="1" stroke-width="2" stroke="none"></path><path d="M772.04 218.54H560.46V235.68H772.04V218.54Z" fill="#388bcc" opacity="1" stroke-width="2" stroke="none"></path><path d="M730.89 223.62H761.17" stroke="#04051f" stroke-width="2" stroke-linecap="round" stroke-linejoin="round" opacity="1" fill="none"></path></g><g><path d="M1137.84 979.45L1162.65 995.01C1162.69 995.04 1162.73 995.05 1162.78 995.06 1162.83 995.06 1162.88 995.05 1162.92 995.03L1182.49 985.66C1182.55 985.64 1182.6 985.59 1182.63 985.54 1182.65 985.49 1182.67 985.44 1182.66 985.38 1182.66 985.32 1182.65 985.26 1182.6 985.21 1182.57 985.17 1182.52 985.13 1182.47 985.11L1148.61 974.21C1148.54 974.19 1148.46 974.19 1148.39 974.22L1137.88 978.93C1137.83 978.95 1137.79 978.98 1137.75 979.03 1137.72 979.08 1137.7 979.13 1137.7 979.18 1137.7 979.23 1137.71 979.28 1137.74 979.34 1137.75 979.38 1137.8 979.42 1137.84 979.45Z" fill="#2d264f" opacity="1" stroke-width="2" stroke="none"></path><path d="M1107.47 983.81V1021.25C1107.47 1021.52 1107.58 1021.77 1107.76 1021.96 1107.95 1022.15 1108.2 1022.26 1108.46 1022.27L1213.84 1026.35C1215.34 1026.35 1217.98 1026.27 1218.73 1025.25L1220.06 1018.93C1220.09 1018.78 1220.09 1018.62 1220.06 1018.47 1219.03 1014.16 1216.41 1011.08 1212.72 1009.75 1212.65 1009.73 1212.56 1009.71 1212.49 1009.7L1193.17 1007.22C1182.56 1006.23 1173.77 997.78 1173.09 987.17 1173.09 987.14 1173.09 987.11 1173.09 987.08V984.66C1173.09 984.52 1173.05 984.39 1173 984.27 1172.95 984.14 1172.88 984.03 1172.78 983.94 1172.68 983.84 1172.58 983.76 1172.45 983.71 1172.33 983.66 1172.19 983.64 1172.06 983.64H1107.47V983.81Z" fill="#3180bd" opacity="1" stroke-width="2" stroke="none"></path><path d="M1214.43 1018.18L1202.48 1020.67C1200.83 1021.01 1199.13 1021.01 1197.49 1020.67L1174.41 1015.19C1172.99 1014.88 1171.53 1014.83 1170.09 1015.03L1142.68 1018.84C1125.06 1023.13 1153.22 1028.98 1153.22 1028.98H1219.25C1220.74 1028.98 1221.9 1027.32 1221.58 1025.66L1220.25 1019.66 1220.08 1018.65C1218.3 1017.88 1216.31 1017.71 1214.43 1018.18V1018.18Z" fill="#296ff6" opacity="1" stroke-width="2" stroke="none"></path><path d="M1047.42 694.44L1047.85 749.56H975.56V694.44H1047.42Z" fill="#388bcc" opacity="1" stroke-width="2" stroke="none"></path><path d="M1184.04 698.48H1171.58L1148.62 695.51 1125.24 698.48H1102.93L1076.27 695.59 1053.65 698.48H1044.37V663.64L985.28 645.68 993.81 592.76 1014.5 541.92C1023.64 544.59 1032.82 547.1 1041.91 549.91 1050.44 552.55 1058.41 555.29 1065.6 560.74 1069.95 563.92 1073.68 567.88 1076.58 572.43L1125.24 652.31 1153.98 652.98C1178.06 652.48 1186.2 675.23 1189.36 691.34 1190.02 694.66 1187.53 698.48 1184.04 698.48Z" fill="#388bcc" opacity="1" stroke-width="2" stroke="none"></path><path d="M1046.19 551.17V551.19L1044.59 550.7 1046.19 551.17Z" fill="#388bcc" opacity="1" stroke-width="2" stroke="none"></path><path d="M1182.3 985.66C1182.35 985.68 1182.4 985.69 1182.44 985.68 1182.49 985.67 1182.55 985.64 1182.59 985.62 1182.62 985.59 1182.65 985.55 1182.68 985.5 1182.7 985.46 1182.7 985.41 1182.7 985.36L1180.55 797.3C1180.53 783.56 1175.07 770.39 1165.36 760.68 1155.65 750.97 1142.48 745.5 1128.74 745.48H1060.51V822.04H1097.12C1098.08 822.05 1099.03 822.26 1099.91 822.66 1100.78 823.06 1101.55 823.65 1102.18 824.38 1102.81 825.12 1103.27 825.98 1103.53 826.9 1103.79 827.83 1103.85 828.8 1103.7 829.75 1095.05 885.16 1095.27 992.73 1107.47 992.27 1128.33 984.23 1170.12 981.87 1182.3 985.66Z" fill="#2d264f" opacity="1" stroke-width="2" stroke="none"></path><path d="M1078.14 988.11L1098.01 995.1 1117.69 985.47C1117.75 985.44 1117.8 985.39 1117.82 985.34 1117.86 985.28 1117.87 985.23 1117.87 985.16 1117.87 985.1 1117.84 985.03 1117.81 984.98 1117.77 984.93 1117.72 984.9 1117.65 984.88L1083.72 974.17 1078.14 988.11Z" fill="#2d264f" opacity="1" stroke-width="2" stroke="none"></path><path d="M927.45 434.92C925.62 463.81 925.78 477.1 934.42 500.51 939.24 513.63 952.36 522.43 966.3 521.27H966.64C972.24 520.72 977.64 518.98 982.51 516.18 987.38 513.38 991.59 509.56 994.87 505L999.19 487.06 1011.14 477.93C1018.46 472.28 1021.45 458.83 1013.98 453.52 1012.48 452.36 1006.6 451.65 1005.1 451.82L997.67 456.64C997.28 456.82 996.85 456.89 996.43 456.85 996 456.82 995.58 456.68 995.23 456.43 994.88 456.2 994.59 455.87 994.4 455.49 994.21 455.11 994.11 454.69 994.12 454.25L993.85 434.69 927.45 434.92Z" fill="#d6a467" opacity="1" stroke-width="2" stroke="none"></path><path d="M961.82 556.15C969.8 551 976.61 539.05 981.75 532.24V507.99L961.16 507.65 940.57 507.99 940.23 533.23C945.38 540.04 952.52 551 960.5 556.15 960.92 555.99 961.4 555.99 961.82 556.15Z" fill="#d6a467" opacity="1" stroke-width="2" stroke="none"></path><path d="M941.39 510.81C947.84 516.33 956.18 519.13 964.65 518.61" stroke="#04051f" stroke-width="2" stroke-linecap="round" stroke-linejoin="round" opacity="1" fill="none"></path><path d="M950.53 500.35C960.83 500.85 965.64 496.53 968.47 490.88" stroke="#04051f" stroke-width="2" stroke-linecap="round" stroke-linejoin="round" opacity="1" fill="none"></path><path d="M949.2 467.63L942.55 484.9C942.45 485.2 942.4 485.52 942.45 485.83 942.48 486.15 942.6 486.45 942.77 486.71 942.96 486.98 943.2 487.19 943.47 487.34 943.76 487.49 944.07 487.56 944.38 487.56H953.68" stroke="#04051f" stroke-width="2" stroke-linecap="round" stroke-linejoin="round" opacity="1" fill="none"></path><path d="M926.52 464.21C939.81 476.86 968.7 472.24 992.81 461.19 992.97 461.11 993.15 461.08 993.33 461.1 993.51 461.11 993.68 461.19 993.83 461.3 993.97 461.41 994.08 461.55 994.15 461.72 994.21 461.88 994.24 462.07 994.21 462.25 992.71 471.24 993.28 481.87 999.49 486.83 1000.15 497.46 999.03 507.49 980.43 519.45 970.72 520.44 960.94 520.66 951.19 520.11 944.49 519.66 938.2 516.72 933.56 511.86 928.92 507.01 926.27 500.59 926.12 493.87L926.52 464.21Z" fill="#d5e0f5" opacity="1" stroke-width="2" stroke="none"></path><path d="M977.77 453.84C977.77 453.84 976.11 459.49 970.62 460.82 965.14 462.15 959.99 458.35 959.99 458.35 959.99 458.35 962.82 452.85 968.47 451.52 970.09 451.13 971.79 451.14 973.41 451.54 975.02 451.95 976.52 452.74 977.77 453.84Z" fill="#fbfbfb" opacity="1" stroke-width="2" stroke="none"></path><path d="M966.49 452.19C963.56 453.52 961.12 455.72 959.5 458.5 959.5 458.5 963.98 461.61 968.83 461.09 969.29 460.13 969.51 459.07 969.46 458 969.48 456.86 969.21 455.74 968.69 454.72 968.18 453.71 967.42 452.84 966.49 452.19V452.19Z" fill="#2d264f" opacity="1" stroke-width="2" stroke="none"></path><path d="M945.93 453.8C945.93 453.8 944.68 458.92 939.66 460.39 934.65 461.86 929.67 458.74 929.67 458.74 929.67 458.74 932.02 453.7 937.19 452.22 938.67 451.79 940.23 451.7 941.74 451.97 943.26 452.25 944.69 452.87 945.93 453.8V453.8Z" fill="#fbfbfb" opacity="1" stroke-width="2" stroke="none"></path><path d="M935.38 452.92C932.76 454.23 930.6 456.32 929.22 458.9 929.22 458.9 933.54 461.43 938.01 460.72 938.38 459.84 938.53 458.88 938.43 457.93 938.38 456.91 938.08 455.92 937.55 455.04 937.01 454.16 936.27 453.43 935.38 452.92V452.92Z" fill="#2d264f" opacity="1" stroke-width="2" stroke="none"></path><path d="M941.89 479.59L931.6 490.55" stroke="#04051f" stroke-width="2" stroke-linecap="round" stroke-linejoin="round" opacity="1" fill="none"></path><path d="M984.9 485.56L970.46 500.85" stroke="#04051f" stroke-width="2" stroke-linecap="round" stroke-linejoin="round" opacity="1" fill="none"></path><path d="M1010.15 461.66L1001.18 470.12" stroke="#04051f" stroke-width="2" stroke-linecap="round" stroke-linejoin="round" opacity="1" fill="none"></path><path d="M1005.67 459.33L1004.34 466.97" stroke="#04051f" stroke-width="2" stroke-linecap="round" stroke-linejoin="round" opacity="1" fill="none"></path><path d="M1030.75 454.01L1024.43 437.74C1023.91 436.47 1023.01 435.38 1021.85 434.64 1020.69 433.9 1019.33 433.53 1017.95 433.59 1016.48 433.57 1015.05 433.04 1013.9 432.11 1012.76 431.18 1011.96 429.89 1011.65 428.44L1007.33 409.5C1006.84 407.46 1005.73 405.61 1004.16 404.21 1002.58 402.82 1000.62 401.94 998.53 401.7L978.26 399.38C976.12 399.05 973.94 399.53 972.12 400.7L970.13 401.87C968.48 402.75 966.64 403.19 964.77 403.13 962.9 403.07 961.08 402.52 959.5 401.53L950.37 395.38C948.24 394.02 945.72 393.43 943.22 393.73L930.6 395.55C928.41 395.92 926.4 397.02 924.92 398.68 923.44 400.34 922.57 402.46 922.46 404.68 922.31 406.48 921.69 408.2 920.63 409.66V409.66C917.37 414.31 915.78 419.94 916.16 425.62L916.82 434.08C917.12 437.27 918.02 440.37 919.48 443.22L926.38 457.26C926.38 457.28 926.4 457.3 926.42 457.31 926.43 457.33 926.46 457.33 926.48 457.33 926.5 457.32 926.53 457.31 926.53 457.29 926.55 457.27 926.55 457.25 926.55 457.23L927.96 440.56C927.98 440.19 928.11 439.83 928.32 439.52 928.53 439.21 928.82 438.97 929.17 438.82 929.51 438.67 929.89 438.61 930.25 438.65 930.62 438.69 930.98 438.84 931.27 439.06L934.92 442.05C935.29 442.39 935.77 442.56 936.25 442.55H955.68C956.08 442.52 956.48 442.4 956.84 442.22L963.98 437.41C964.27 437.21 964.61 437.1 964.96 437.06 965.31 437.04 965.65 437.1 965.98 437.24L974.12 440.72C974.37 440.86 974.66 440.92 974.94 440.89H985.24C985.56 440.87 985.87 440.79 986.16 440.65 986.44 440.51 986.69 440.31 986.9 440.06 987.51 439.76 988.19 439.64 988.87 439.7 989.54 439.77 990.19 440.02 990.73 440.44 991.26 440.86 991.67 441.42 991.91 442.05 992.14 442.7 992.19 443.38 992.05 444.05L989.73 456.17C989.73 457.21 990.04 458.22 990.64 459.07 991.22 459.94 992.06 460.59 993.02 460.96 993.99 461.34 995.05 461.41 996.06 461.19 997.07 460.95 997.99 460.42 998.69 459.66L1000.19 458.16C1000.97 457.34 1001.95 456.73 1003.04 456.37 1004.12 456 1005.27 455.91 1006.4 456.08 1007.52 456.27 1008.59 456.71 1009.5 457.39 1010.42 458.07 1011.15 458.97 1011.65 459.99L1012.15 460.99C1013.06 462.91 1013.38 465.06 1013.05 467.16 1012.72 469.27 1011.77 471.22 1010.33 472.78L1000.1 483.52 999.85 487.56C999.79 488.53 999.96 489.5 1000.36 490.38 1000.77 491.26 1001.39 492.02 1002.17 492.61 1002.95 493.19 1003.86 493.56 1004.82 493.7 1005.78 493.83 1006.76 493.72 1007.66 493.38L1013.48 491.05C1016.26 489.98 1018.66 488.08 1020.34 485.62 1022.03 483.17 1022.94 480.25 1022.94 477.27V469.46C1022.94 468.3 1023.24 467.17 1023.79 466.15 1024.33 465.14 1025.12 464.28 1026.09 463.65L1028.42 462.15C1029.64 461.23 1030.52 459.94 1030.94 458.47 1031.36 457 1031.29 455.44 1030.75 454.01V454.01Z" fill="#2d264f" opacity="1" stroke-width="2" stroke="none"></path><path d="M931.1 468.79C939.35 468.79 946.05 461.73 946.05 453.02 946.05 444.3 939.35 437.24 931.1 437.24 922.84 437.24 916.15 444.3 916.15 453.02 916.15 461.73 922.84 468.79 931.1 468.79Z" stroke="#04051f" stroke-width="2" stroke-linecap="round" stroke-linejoin="round" opacity="1" fill="none"></path><path d="M966.8 469.29C975.06 469.29 981.75 462.22 981.75 453.52 981.75 444.8 975.06 437.74 966.8 437.74 958.55 437.74 951.85 444.8 951.85 453.52 951.85 462.22 958.55 469.29 966.8 469.29Z" stroke="#04051f" stroke-width="2" stroke-linecap="round" stroke-linejoin="round" opacity="1" fill="none"></path><path d="M968.93 403.24L955.31 415.04" stroke="#fcfcfc" stroke-width="2" stroke-linecap="round" stroke-linejoin="round" opacity="1" fill="none"></path><path d="M1001.52 425.45L991.72 432.75" stroke="#fcfcfc" stroke-width="2" stroke-linecap="round" stroke-linejoin="round" opacity="1" fill="none"></path><path d="M931.1 424.62L925.62 430.93" stroke="#fcfcfc" stroke-width="2" stroke-linecap="round" stroke-linejoin="round" opacity="1" fill="none"></path><path d="M1025.1 454.34L1021.45 457" stroke="#fcfcfc" stroke-width="2" stroke-linecap="round" stroke-linejoin="round" opacity="1" fill="none"></path><path d="M961 551.46C957.11 551.41 947.43 559.09 947.43 559.09L940.23 569.58V747.47C943.57 747.77 952.19 749.81 960.99 749.53 967.97 749.64 974.94 748.95 981.75 747.47V569.68L972.14 558.12C972.14 558.12 964.24 551.5 961 551.46Z" fill="#ffffff" opacity="1" stroke-width="2" stroke="none"></path><path d="M934.69 806.91C934.69 870.2 928.94 941.95 938.94 941.95H1047.69C1047.69 931.54 1047.47 872.14 1047.24 806.91H934.69Z" fill="#3180bd" opacity="1" stroke-width="2" stroke="none"></path><path d="M960.5 967.13V854.46H982.09V967.13H960.5Z" fill="#2d264f" opacity="1" stroke-width="2" stroke="none"></path><path d="M895.22 977.16C895.06 988.45 894.89 1002.74 894.89 1010.05H922.13V982.98H1021.45V1010.05H1048.68V977.33C1048.68 968.53 1039.55 961.22 1028.42 961.22H915.49C904.52 961.39 895.39 968.36 895.22 977.16Z" fill="#2d264f" opacity="1" stroke-width="2" stroke="none"></path><path d="M908.51 1029.98C919.7 1029.98 928.77 1020.68 928.77 1009.22 928.77 997.75 919.7 988.45 908.51 988.45 897.32 988.45 888.25 997.75 888.25 1009.22 888.25 1020.68 897.32 1029.98 908.51 1029.98Z" fill="#2d264f" opacity="1" stroke-width="2" stroke="none"></path><path d="M1035.23 1029.98C1046.14 1029.98 1054.99 1020.9 1054.99 1009.71 1054.99 998.52 1046.14 989.45 1035.23 989.45 1024.31 989.45 1015.46 998.52 1015.46 1009.71 1015.46 1020.9 1024.31 1029.98 1035.23 1029.98Z" fill="#2d264f" opacity="1" stroke-width="2" stroke="none"></path><path d="M1028.58 861.73H913.99C908.48 861.73 903.21 859.54 899.32 855.65 895.42 851.76 893.23 846.48 893.23 840.98V840.98C893.23 835.47 895.42 830.19 899.32 826.3 903.21 822.41 908.48 820.22 913.99 820.22H1028.58C1034.09 820.22 1039.37 822.41 1043.27 826.3 1047.15 830.19 1049.34 835.47 1049.35 840.98V840.98C1049.34 846.48 1047.15 851.76 1043.27 855.65 1039.37 859.54 1034.09 861.73 1028.58 861.73V861.73Z" fill="#d5e0f5" opacity="1" stroke-width="2" stroke="none"></path><path d="M1049.35 669.08C1045.39 659.68 1041.06 648.76 1032.7 640.8 1032.69 640.78 1032.66 640.76 1032.64 640.75 1032.61 640.75 1032.59 640.75 1032.56 640.75 1032.54 640.75 1032.51 640.76 1032.49 640.78 1032.47 640.8 1032.45 640.82 1032.44 640.85 1031.22 643.3 1019.37 667.55 1017.79 669.92 1016.13 672.41 1049.35 669.08 1049.35 669.08Z" fill="#2d264f" opacity="1" stroke-width="2" stroke="none"></path><path d="M946.05 450.69C947.92 449.98 949.98 449.98 951.85 450.69" stroke="#04051f" stroke-width="2" stroke-linecap="round" stroke-linejoin="round" opacity="1" fill="none"></path><path d="M1026.95 698.48C1016.05 698.48 1015.97 664.27 1015.97 664.27L1050.01 652.31C1057.14 649.85 1064.84 649.62 1072.1 651.64L1114.78 663.93C1119.93 666.59 1119.43 673.4 1113.79 675.39H1067.12L1052.01 696.98C1052.01 696.98 1050.34 697.65 1048.02 698.48H1026.95Z" fill="#d6a467" opacity="1" stroke-width="2" stroke="none"></path><path d="M1105.31 698.48H1052.33C1051.94 698.48 1051.56 698.41 1051.19 698.25 1050.83 698.1 1050.5 697.89 1050.22 697.61 1049.94 697.33 1049.72 697 1049.57 696.63 1049.42 696.27 1049.34 695.88 1049.34 695.49V683.87C1049.34 682.09 1049.68 680.35 1050.35 678.71 1051.03 677.07 1052.02 675.58 1053.27 674.34 1054.52 673.09 1056.01 672.09 1057.64 671.42 1059.28 670.75 1061.03 670.4 1062.8 670.41H1094.68C1096.46 670.4 1098.21 670.75 1099.84 671.42 1101.48 672.09 1102.97 673.09 1104.22 674.34 1105.46 675.58 1106.46 677.07 1107.14 678.71 1107.8 680.35 1108.15 682.09 1108.14 683.87V695.49C1108.16 696.26 1107.86 697 1107.34 697.56 1106.81 698.12 1106.08 698.45 1105.31 698.48V698.48Z" fill="#d5e0f5" opacity="1" stroke-width="2" stroke="none"></path><path d="M1014.5 541.92L1011.88 554.05 1010.03 562.61 1008.02 571.91 1007.28 575.35 997.79 619.28 996.05 627.31 993.05 641.19H981.75V532.38L1001.59 538.16 1004.07 539.42 1006.36 539.55 1014.5 541.92Z" fill="#3180bd" opacity="1" stroke-width="2" stroke="none"></path><path d="M875.47 684.45V780.36C875.47 793.98 881.27 807.35 881.27 820.22 881.27 835.42 875.47 849.92 875.47 863.31V941.96H939.74L940.14 684.45 875.47 684.45Z" fill="#388bcc" opacity="1" stroke-width="2" stroke="none"></path><path d="M1027.92 698.48H798.24V698.65C775.32 694.33 763.37 666.93 779.31 648.49 813.35 608.97 857.53 559.48 868.16 556.32 868.16 556.32 902.94 544.73 906.9 543.38 919.57 539.04 926.48 599.52 926.48 599.52L940.24 640.69H1032.56C1032.58 640.69 1032.6 640.69 1032.62 640.7 1032.64 640.7 1032.65 640.72 1032.67 640.74 1032.68 640.75 1032.7 640.77 1032.7 640.79 1032.7 640.81 1032.7 640.83 1032.7 640.85 1029.4 656.15 1025.44 681.93 1027.92 698.48Z" fill="#388bcc" opacity="1" stroke-width="2" stroke="none"></path><path d="M940.24 532.24V640.69H928.77L910.39 559.05 908.65 551.26 906.9 543.38C908.6 542.79 910.32 542.2 912.04 541.62 912.6 541.42 913.19 541.7 913.76 541.5 914.56 541.24 915.34 540.48 916.13 540.22 925.65 536.98 934.59 533.98 940.24 532.24Z" fill="#3180bd" opacity="1" stroke-width="2" stroke="none"></path><path d="M1046.28 1019.23L1148.68 1027.29C1150.17 1027.29 1153.99 1026.82 1155.13 1024.54L1155.48 1019.02C1154.48 1014.53 1151.65 1011.05 1147.83 1009.72L1128.4 1007.22C1117.77 1006.23 1108.97 997.76 1108.31 987.13V981.12L1042.71 983.64V1009.64L1046.28 1019.23Z" fill="#388bcc" opacity="1" stroke-width="2" stroke="none"></path><path d="M960.99 551.66C958.83 553.66 940.23 570.1 940.23 570.1V532.24C940.23 532.24 958.83 549.17 960.99 551.34 963.15 549.34 981.75 532.24 981.75 532.24V570.1C981.75 570.1 963.15 553.49 960.99 551.66Z" fill="#ffffff" opacity="1" stroke-width="2" stroke="none"></path><path d="M1117.93 985.1C1117.93 985.16 1117.92 985.23 1117.89 985.28 1117.87 985.34 1117.82 985.38 1117.77 985.42 1117.72 985.45 1117.67 985.48 1117.61 985.49 1117.55 985.5 1117.49 985.49 1117.43 985.48 1110.95 983.58 1096.33 983.29 1080.9 984.65 1079.85 984.74 1078.57 983.53 1077.52 983.64 1076.34 983.76 1075.38 985.2 1074.19 985.34 1062.5 986.71 1050.96 989.03 1042.71 992.28 1033.91 936.47 1029.92 880.18 1040.22 822.05H939.74V745.49H1063.97C1077.7 745.5 1090.87 750.97 1100.58 760.68 1110.29 770.39 1115.76 783.56 1115.78 797.3L1117.93 985.1Z" fill="#d5e0f5" opacity="1" stroke-width="2" stroke="none"></path><path d="M875.46 778.69H914.82V850.11C914.82 858.41 908.34 865.05 900.37 865.05H875.63V778.69H875.46Z" fill="#3180bd" opacity="1" stroke-width="2" stroke="none"></path><path d="M876.33 800.79H914.16" stroke="#04051f" stroke-width="2" stroke-linecap="round" stroke-linejoin="round" opacity="1" fill="none"></path><path d="M1080.9 804.78V984.65C1078.67 984.84 1076.43 985.08 1074.19 985.34L1074.26 804.61C1074.26 801.93 1073.73 799.27 1072.71 796.79 1071.68 794.3 1070.17 792.06 1068.28 790.16 1066.38 788.26 1064.13 786.75 1061.65 785.73 1059.18 784.7 1056.52 784.18 1053.84 784.18H939.74V777.53H1053.84C1061.03 777.58 1067.92 780.46 1072.99 785.56 1078.06 790.67 1080.9 797.58 1080.9 804.78V804.78Z" fill="#becde8" opacity="1" stroke-width="2" stroke="none"></path><path d="M1149.66 1018.18L1137.7 1020.67C1136.06 1021.01 1134.37 1021.01 1132.72 1020.67L1109.63 1015.19C1108.21 1014.88 1106.75 1014.83 1105.31 1015.03L1077.91 1018.84C1076.18 1019.01 1074.43 1018.84 1072.77 1018.34L1047.03 1010.05C1045.64 1009.56 1044.17 1009.39 1042.71 1009.54V1028.97H1154.48C1155.98 1028.97 1157.14 1027.31 1156.81 1025.65L1155.4 1018.69C1153.61 1017.86 1151.58 1017.68 1149.66 1018.18V1018.18Z" fill="#d5e0f5" opacity="1" stroke-width="2" stroke="none"></path><path d="M884.93 619.26L863.84 640.35" stroke="#04051f" stroke-width="2" stroke-linecap="round" stroke-linejoin="round" opacity="1" fill="none"></path><path d="M820.99 662.77L850.88 674.9" stroke="#04051f" stroke-width="2" stroke-linecap="round" stroke-linejoin="round" opacity="1" fill="none"></path><path d="M946.38 658.29L970.13 681.21" stroke="#04051f" stroke-width="2" stroke-linecap="round" stroke-linejoin="round" opacity="1" fill="none"></path><path d="M1040.22 628.87C1038.66 631.2 1036.39 632.96 1033.74 633.86 1032.7 634.2 1031.78 634.84 1031.08 635.68 1030.67 636.12 1030.16 636.46 1029.59 636.68 1027.76 637.34 1025.6 636.18 1024.77 634.19 1024.11 632.03 1024.93 629.87 1026.93 629.21 1027.48 629.04 1028.07 628.99 1028.64 629.08 1029.22 629.16 1029.76 629.38 1030.25 629.71 1030.97 630.08 1031.78 630.27 1032.6 630.24 1033.41 630.22 1034.21 629.97 1034.9 629.54 1036.03 628.88 1036.99 627.97 1037.73 626.88 1038.6 625.64 1039.21 624.23 1039.51 622.75 1039.83 621.26 1039.84 619.73 1039.55 618.24L1034.73 591.67C1034.23 588.86 1033.19 586.18 1031.66 583.77 1030.12 581.36 1028.13 579.29 1025.79 577.66 1023.09 575.87 1020.02 574.74 1016.8 574.34 1013.59 573.93 1010.33 574.28 1007.28 575.35 1005.33 576.01 1003.49 576.98 1001.84 578.21 995.39 583.05 992.58 591.5 994.05 599.31L997.79 619.28 999.03 625.89C999.58 628.91 1001.31 631.6 1003.84 633.36 1004.93 634.02 1006.1 634.52 1007.33 634.85 1008.14 635.05 1008.99 635 1009.78 634.74 1010.58 634.48 1011.28 633.99 1011.81 633.36 1012.11 632.87 1012.51 632.46 1013.01 632.17 1013.5 631.88 1014.06 631.71 1014.64 631.7 1015.14 631.67 1015.65 631.75 1016.12 631.94 1016.59 632.12 1017.03 632.41 1017.39 632.76 1017.75 633.12 1018.02 633.55 1018.21 634.03 1018.39 634.5 1018.47 635 1018.46 635.51 1018.51 636.55 1018.16 637.56 1017.48 638.34 1016.79 639.12 1015.83 639.59 1014.8 639.67 1014.23 639.72 1013.65 639.6 1013.14 639.33 1012.17 638.81 1011.09 638.52 1009.99 638.51 1007.15 638.6 1004.36 637.79 1002.02 636.18 999.22 633.7 997.01 630.92 996.05 627.31 995.99 627.06 995.92 626.81 995.87 626.55L990.89 599.97C990.31 596.96 990.29 593.87 990.81 590.84 991.51 586.59 993.36 582.62 996.16 579.33 998.95 576.06 1002.6 573.61 1006.68 572.25 1006.8 572.21 1007.36 572.07 1008.02 571.91 1009.16 571.65 1010.62 571.3 1010.62 571.29 1010.55 568.88 1010.4 566.36 1010.16 563.94 1010.12 563.5 1010.08 563.05 1010.03 562.61 1009.15 553.91 1006.26 545.55 1001.59 538.16L1006.36 539.55C1008.79 544.14 1010.64 549.01 1011.88 554.05 1012.66 557.19 1013.19 560.38 1013.48 563.61 1013.71 566.19 1013.86 568.61 1013.93 570.98 1025.15 570.72 1035.59 579.26 1037.73 591.17L1042.54 617.75C1043.37 621.73 1042.04 625.39 1040.22 628.87Z" fill="#2d264f" opacity="1" stroke-width="2" stroke="none"></path><path d="M916.13 540.22C914.03 544.49 912.47 549.01 911.5 553.66 911.11 555.46 910.74 557.26 910.39 559.05 906.23 580.03 905.43 601.53 908.02 622.75L904.7 623.25C901.71 600.66 902.87 577.08 908.18 552.99 908.33 552.43 908.48 551.85 908.65 551.26 909.55 547.97 910.68 544.75 912.04 541.62 913.41 541.14 914.78 540.68 916.13 540.22Z" fill="#2d264f" opacity="1" stroke-width="2" stroke="none"></path><path d="M904.78 626.12C911.66 626.12 917.24 620.55 917.24 613.67 917.24 606.78 911.66 601.21 904.78 601.21 897.91 601.21 892.32 606.78 892.32 613.67 892.32 620.55 897.91 626.12 904.78 626.12Z" fill="#2d264f" opacity="1" stroke-width="2" stroke="none"></path><path d="M904.78 620.47C908.54 620.47 911.59 617.43 911.59 613.67 911.59 609.91 908.54 606.86 904.78 606.86 901.02 606.86 897.97 609.91 897.97 613.67 897.97 617.43 901.02 620.47 904.78 620.47Z" fill="#d5e0f5" opacity="1" stroke-width="2" stroke="none"></path><path d="M1039.88 671.25H1057.65" stroke="#04051f" stroke-width="2" stroke-linecap="round" stroke-linejoin="round" opacity="1" fill="none"></path><path d="M938.97 640.69H842.72" stroke="#04051f" stroke-width="2" stroke-linecap="round" stroke-linejoin="round" opacity="1" fill="none"></path><path d="M1031.89 640.69H983.3" stroke="#04051f" stroke-width="2" stroke-linecap="round" stroke-linejoin="round" opacity="1" fill="none"></path><path d="M959.67 583.55C961.96 583.55 963.81 581.7 963.81 579.4 963.81 577.11 961.96 575.25 959.67 575.25 957.37 575.25 955.51 577.11 955.51 579.4 955.51 581.7 957.37 583.55 959.67 583.55Z" fill="#d5e0f5" opacity="1" stroke-width="2" stroke="none"></path><path d="M1070.11 671.26V697.54" stroke="#04051f" stroke-width="2" stroke-linecap="round" stroke-linejoin="round" opacity="1" fill="none"></path><path d="M959.67 620.1C961.96 620.1 963.81 618.23 963.81 615.94 963.81 613.65 961.96 611.79 959.67 611.79 957.37 611.79 955.51 613.65 955.51 615.94 955.51 618.23 957.37 620.1 959.67 620.1Z" fill="#d5e0f5" opacity="1" stroke-width="2" stroke="none"></path><path d="M1133.22 661.28H1159.96C1162.17 661.3 1164.33 662 1166.14 663.27 1167.95 664.54 1169.33 666.34 1170.09 668.42L1177.9 687.68C1178.38 688.88 1178.55 690.17 1178.41 691.45 1178.27 692.73 1177.82 693.95 1177.1 695.02 1176.39 696.08 1175.42 696.96 1174.28 697.56 1173.14 698.16 1171.87 698.48 1170.59 698.48H1125.24C1121.09 698.48 1118.1 694.49 1118.94 690.34L1122.42 671.08C1123.41 665.26 1127.9 661.28 1133.22 661.28Z" fill="#d6a467" opacity="1" stroke-width="2" stroke="none"></path><path d="M1142.19 677.14L1132.61 681.6 1146.18 639.02C1146.32 638.61 1146.55 638.22 1146.85 637.9 1147.15 637.57 1147.51 637.3 1147.92 637.12 1148.32 636.93 1148.75 636.83 1149.19 636.81 1149.64 636.8 1150.08 636.88 1150.49 637.04 1151.31 637.32 1151.97 637.92 1152.34 638.7 1152.72 639.48 1152.77 640.37 1152.49 641.18L1142.19 677.14Z" fill="#d5e0f5" opacity="1" stroke-width="2" stroke="none"></path><path d="M1124.72 652.31L1092.29 652.22" stroke="#04051f" stroke-width="2" stroke-linecap="round" stroke-linejoin="round" opacity="1" fill="none"></path><path d="M1158.46 669.58L1133.05 681.37C1131.47 682.12 1130.18 683.38 1129.4 684.94 1128.62 686.51 1128.39 688.29 1128.74 690.01V690.01C1128.85 690.53 1129.07 691.01 1129.38 691.44 1129.69 691.86 1130.07 692.23 1130.53 692.51 1130.97 692.78 1131.47 692.97 1131.99 693.06 1132.51 693.14 1133.04 693.12 1133.55 693L1160.63 686.19" stroke="#04051f" stroke-width="2" stroke-linecap="round" stroke-linejoin="round" opacity="1" fill="none"></path><path d="M1134.05 696.32L1145.17 690.07" stroke="#04051f" stroke-width="2" stroke-linecap="round" stroke-linejoin="round" opacity="1" fill="none"></path><path d="M939.38 698.48H876.24" stroke="#04051f" stroke-width="2" stroke-linecap="round" stroke-linejoin="round" opacity="1" fill="none"></path><path d="M1026.83 698.48L982.6 698.48" stroke="#04051f" stroke-width="2" stroke-linecap="round" stroke-linejoin="round" opacity="1" fill="none"></path></g><g><path d="M1041.8 556.98C1041.41 559.02 1041.47 561.13 1041.99 563.14 1042.51 565.15 1043.46 567.03 1044.78 568.63 1046.11 570.23 1047.77 571.52 1049.65 572.41 1051.53 573.29 1053.59 573.75 1055.66 573.75H1076.7C1084.65 573.3 1242.43 569.89 1284.28 569.89 1300.24 569.89 1298.06 558.99 1300.59 545.12 1326.56 403.11 1325.7 419.4 1325.7 413.09 1325.7 404.36 1319.38 402.64 1313.18 402.64 1262.06 402.64 1160.17 399.56 1108.47 398.06L1108.15 398.05 1084.03 398.05C1080.76 398.05 1077.58 399.2 1075.05 401.29 1072.52 403.37 1070.79 406.28 1070.17 409.5L1041.8 556.98Z" fill="#8ba4d4" opacity="1" stroke-width="2" stroke="none"></path><path d="M1057.92 556.98C1057.53 559.02 1057.6 561.13 1058.11 563.14 1058.64 565.15 1059.59 567.02 1060.91 568.62 1062.24 570.22 1063.9 571.51 1065.77 572.39 1067.65 573.28 1069.7 573.74 1071.78 573.75H1289.06C1292.34 573.74 1295.51 572.59 1298.04 570.5 1300.57 568.42 1302.29 565.52 1302.92 562.31L1331.29 414.81C1331.67 412.78 1331.61 410.67 1331.09 408.66 1330.58 406.65 1329.62 404.78 1328.29 403.18 1326.97 401.58 1325.32 400.29 1323.44 399.4 1321.55 398.52 1319.51 398.06 1317.43 398.05H1100.15C1096.87 398.06 1093.7 399.21 1091.17 401.29 1088.64 403.38 1086.91 406.28 1086.28 409.5L1057.92 556.98Z" fill="#d5e0f5" opacity="1" stroke-width="2" stroke="none"></path><path d="M1210.56 667.23C1210.81 667.93 1211.27 668.54 1211.88 668.98 1212.48 669.41 1213.21 669.64 1213.95 669.65H1272.46C1273.03 669.65 1273.58 669.52 1274.08 669.27 1274.58 669.01 1275.02 668.64 1275.35 668.18 1275.68 667.72 1275.9 667.2 1275.98 666.64 1276.07 666.09 1276.02 665.51 1275.84 664.98L1233.13 535.22C1232.88 534.52 1232.42 533.91 1231.82 533.48 1231.21 533.05 1230.49 532.81 1229.75 532.8L1171.24 532.8C1170.67 532.8 1170.12 532.93 1169.62 533.19 1169.11 533.44 1168.68 533.82 1168.35 534.27 1168.02 534.73 1167.8 535.26 1167.71 535.81 1167.62 536.37 1167.67 536.94 1167.85 537.48L1210.56 667.23Z" fill="#8ba4d4" opacity="1" stroke-width="2" stroke="none"></path><path d="M1170.75 670.46H1301.71C1301.72 670.46 1301.74 670.46 1301.74 670.45 1301.75 670.45 1301.76 670.44 1301.77 670.44 1301.78 670.43 1301.78 670.42 1301.78 670.41 1301.79 670.4 1301.79 670.39 1301.79 670.38V655.95C1301.79 655.17 1301.64 654.39 1301.34 653.67 1301.04 652.94 1300.61 652.29 1300.05 651.73 1299.49 651.17 1298.84 650.74 1298.11 650.44 1297.39 650.14 1296.61 649.99 1295.83 649.99H1176.55C1175.76 649.99 1174.99 650.14 1174.26 650.44 1173.54 650.74 1172.88 651.17 1172.33 651.73 1171.78 652.29 1171.33 652.94 1171.04 653.67 1170.74 654.39 1170.58 655.17 1170.58 655.95V670.38C1170.58 670.39 1170.59 670.4 1170.59 670.41 1170.6 670.42 1170.6 670.43 1170.61 670.44 1170.62 670.44 1170.62 670.45 1170.63 670.45 1170.65 670.46 1170.66 670.46 1170.67 670.46H1170.75Z" fill="#7793ca" opacity="1" stroke-width="2" stroke="none"></path><path d="M1204.11 495.57C1193.87 495.57 1185.58 487.28 1185.58 477.04 1185.58 466.8 1193.87 458.5 1204.11 458.5 1214.35 458.5 1222.65 466.8 1222.65 477.04 1222.65 487.28 1214.35 495.57 1204.11 495.57Z" fill="#8ba4d4" opacity="1" stroke-width="2" stroke="none"></path><path d="M1113.85 435.12L1152.53 486.7" stroke="#04051f" stroke-width="2" stroke-linecap="round" stroke-linejoin="round" opacity="1" fill="none"></path><path d="M1200.89 560.85L1231.52 609.2" stroke="#04051f" stroke-width="2" stroke-linecap="round" stroke-linejoin="round" opacity="1" fill="none"></path><path d="M1276.65 491.54L1297.6 520.55" stroke="#04051f" stroke-width="2" stroke-linecap="round" stroke-linejoin="round" opacity="1" fill="none"></path></g><g><path d="M880.51 629C880.22 629.12 879.9 629.19 879.58 629.19 833.85 633.7 809.15 633.39 766.98 629.19 766.66 629.19 766.35 629.12 766.06 629 765.43 628.66 764.89 628.17 764.49 627.57 764.09 626.98 763.83 626.29 763.75 625.57 761.67 615.32 761.85 604.11 763.94 592.16 764.32 589.88 765.65 588.36 767.17 588.36H879.58C881.48 588.36 883 590.64 883 593.29V624.05C883 626.42 881.95 628.39 880.51 629Z" fill="#9f86ae" opacity="1" stroke-width="2" stroke="none"></path><path d="M890.19 669.06C889.57 669.44 888.86 669.64 888.13 669.63H752.92C751.53 669.65 750.17 669.26 748.99 668.52 747.81 667.77 746.87 666.71 746.28 665.45 741.54 656.15 742.29 645.32 746.85 633.55 747.39 632.19 748.33 631.02 749.55 630.21 750.78 629.39 752.22 628.97 753.68 629H888.13C889.14 629 890.1 629.4 890.82 630.11 891.53 630.82 891.93 631.79 891.93 632.8 891.93 634.88 890.22 637.35 888.13 637.35H879.2L867.87 644.31 867.3 656.65 879.06 661.46H888.13C889.14 661.46 890.1 661.86 890.82 662.58 891.53 663.29 891.93 664.25 891.93 665.26V665.64C891.96 666.31 891.82 666.98 891.51 667.58 891.2 668.18 890.75 668.7 890.19 669.06V669.06Z" fill="#464646" opacity="1" stroke-width="2" stroke="none"></path><path d="M879.2 661.46H756.44C756.41 661.46 756.39 661.45 756.37 661.43 756.35 661.41 756.34 661.39 756.34 661.36V637.45C756.34 637.43 756.35 637.4 756.37 637.38 756.39 637.36 756.41 637.35 756.44 637.35H879.2C875.84 647.06 876.34 655.08 879.06 661.46 879.11 661.57 879.15 661.36 879.2 661.46Z" fill="#d5e0f5" opacity="1" stroke-width="2" stroke="none"></path><path d="M756.95 643.42H877.37" stroke="#04051f" stroke-width="2" stroke-linecap="round" stroke-linejoin="round" opacity="1" fill="none"></path><path d="M756.96 654.44H876.81" stroke="#04051f" stroke-width="2" stroke-linecap="round" stroke-linejoin="round" opacity="1" fill="none"></path><path d="M824.71 621.02C824.3 621.59 823.76 622.05 823.13 622.38 822.5 622.7 821.8 622.87 821.09 622.87 820.39 622.87 819.69 622.7 819.07 622.38 818.44 622.05 817.9 621.59 817.49 621.02V621.02C812.29 614.19 806.18 608.12 799.31 602.97 799.29 602.95 799.28 602.94 799.27 602.92 799.26 602.9 799.26 602.87 799.27 602.85 799.28 602.83 799.29 602.82 799.31 602.8 799.32 602.79 799.34 602.79 799.37 602.79H801.55C804.44 602.79 807.28 603.53 809.81 604.94 812.33 606.35 814.46 608.39 815.98 610.85 815.99 610.86 816.01 610.88 816.03 610.89 816.05 610.89 816.07 610.9 816.09 610.89 816.11 610.88 816.13 610.87 816.14 610.86 816.15 610.84 816.16 610.82 816.16 610.8 816.4 605.37 818.07 600.1 821.01 595.53 821.02 595.51 821.03 595.5 821.04 595.49 821.06 595.48 821.08 595.48 821.09 595.48 821.11 595.48 821.13 595.48 821.14 595.49 821.16 595.5 821.17 595.51 821.18 595.53 824.29 600.85 825.96 605.83 826.04 610.79 826.04 610.82 826.05 610.84 826.06 610.85 826.07 610.87 826.09 610.88 826.11 610.89 826.13 610.89 826.15 610.89 826.17 610.88 826.19 610.88 826.21 610.86 826.22 610.84 827.74 608.38 829.87 606.35 832.39 604.93 834.92 603.52 837.76 602.78 840.65 602.78H842.82C842.85 602.78 842.87 602.79 842.88 602.8 842.9 602.81 842.91 602.83 842.92 602.85 842.93 602.87 842.93 602.89 842.92 602.91 842.91 602.93 842.9 602.95 842.88 602.96 836.02 608.12 829.91 614.19 824.71 621.02Z" fill="#d5e0f5" opacity="1" stroke-width="2" stroke="none"></path><path d="M788.06 598.23L779.13 610.2" stroke="#04051f" stroke-width="2" stroke-linecap="round" stroke-linejoin="round" opacity="1" fill="none"></path></g><g><path d="M603.87 421.54C603.85 421.53 603.85 421.52 603.84 421.51 603.83 421.5 603.83 421.49 603.83 421.47 603.94 420.58 605.97 404.96 619.76 399.75 633.95 394.39 659.97 390.77 663.6 373.89 667.22 357.03 658.73 320.5 661.23 298.41 661.23 298.4 661.24 298.38 661.25 298.37 661.26 298.36 661.28 298.35 661.3 298.35H678.49C678.51 298.35 678.52 298.36 678.52 298.36 678.53 298.36 678.54 298.37 678.55 298.38 678.56 298.38 678.56 298.4 678.56 298.4 678.56 298.42 678.56 298.42 678.56 298.44 678.31 299.39 676.16 308.65 680.45 323.95 680.45 323.96 680.45 323.97 680.47 323.98 680.47 323.99 680.48 324 680.49 324 680.51 324 680.51 324 680.52 324 680.54 324 680.54 323.99 680.55 323.98 681.49 323.1 690.58 314.94 704.92 318.22 720.06 321.69 729.68 335.41 725.89 364.27 722.1 393.13 709.67 410.94 691.83 420.41 673.99 429.87 657.61 407.48 643 409.88 626.25 412.64 623.21 420.95 620.54 426.04 617.94 430.99 604.62 422.05 603.87 421.54Z" fill="#fa9582" opacity="1" stroke-width="2" stroke="none"></path><path d="M612.42 431.61C617.26 431.61 621.18 427.7 621.18 422.86 621.18 418.03 617.26 414.11 612.42 414.11 607.59 414.11 603.67 418.03 603.67 422.86 603.67 427.7 607.59 431.61 612.42 431.61Z" fill="#ff340e" opacity="1" stroke-width="2" stroke="none"></path><path d="M669.9 307.03C674.7 307.03 678.58 303.15 678.58 298.36 678.58 293.57 674.7 289.68 669.9 289.68 665.12 289.68 661.24 293.57 661.24 298.36 661.24 303.15 665.12 307.03 669.9 307.03Z" fill="#ff340e" opacity="1" stroke-width="2" stroke="none"></path><path d="M705.04 328.98C719.82 330.23 720.54 359.46 714.59 367.87" stroke="#04051f" stroke-width="2" stroke-linecap="round" stroke-linejoin="round" opacity="1" fill="none"></path></g><g><path d="M1298.59 705.29H691.02V784.09H1298.59V705.29Z" fill="#443b60" opacity="1" stroke-width="2" stroke="none"></path><path d="M1330.32 1029.95V669.26H662.35V1029.95H699.61V714.55H1293.06V1029.95L1330.32 1029.95Z" fill="#6eb8f4" stroke-linejoin="round" opacity="1" stroke-width="2" stroke="none"></path><path d="M850.77 741.41H795.77V753.28H850.77V741.41Z" fill="#000000" opacity="1" stroke-width="2" stroke="none"></path><path d="M672.46 765.13L683.99 751.12" stroke="#04051f" stroke-width="2" stroke-linecap="round" stroke-linejoin="round" opacity="1" fill="none"></path><path d="M845.45 693.96L860.08 676.17" stroke="#04051f" stroke-width="2" stroke-linecap="round" stroke-linejoin="round" opacity="1" fill="none"></path><path d="M1315.61 751.12L1301.42 768.37" stroke="#04051f" stroke-width="2" stroke-linecap="round" stroke-linejoin="round" opacity="1" fill="none"></path><path d="M1318.27 912.87L1304.97 929.05" stroke="#04051f" stroke-width="2" stroke-linecap="round" stroke-linejoin="round" opacity="1" fill="none"></path></g><g><path d="M302.12 901.08C287.5 917.82 280.06 931.9 282.45 939.87 284.84 947.84 293.08 962.2 297.06 976.28 297.78 978.85 298.67 981.36 299.75 983.8 301.09 990.98 288.31 991.21 282.29 987.38 268.1 978.34 252.42 968.07 250.56 949.73 248.99 934.24 241.01 928.88 242.74 926.69 253.89 917.39 251.63 874.77 263.31 841.55 275 808.33 286.5 809.49 299.73 794.78L327.47 789.67 351.42 805.92C342.98 840.63 316.73 884.34 302.12 901.08Z" fill="#f4b498" opacity="1" stroke-width="2" stroke="none"></path><path d="M281.96 1014.55H318.19C318.78 1014.55 319.37 1014.42 319.91 1014.17 320.45 1013.92 320.92 1013.55 321.31 1013.09 321.69 1012.63 321.96 1012.1 322.1 1011.51 322.25 1010.94 322.27 1010.34 322.16 1009.75 321.84 1007.99 321.11 1006.32 320.04 1004.89 318.95 1003.47 317.55 1002.31 315.93 1001.53 309.52 998.32 303.81 993.05 299.74 983.8 295.4 988.54 289 988.35 282.98 984.52 268.78 975.48 258 966.98 256.14 948.64 254.57 933.14 251.6 930.42 242.74 926.69 231.62 935.93 221.6 942.03 222.66 949.44 223.72 956.88 237.34 970.61 248.29 982.21 257.26 991.71 263.89 997.62 267.91 1005.77 269.19 1008.41 271.19 1010.62 273.67 1012.17 276.16 1013.72 279.02 1014.54 281.96 1014.55Z" fill="#fa9582" opacity="1" stroke-width="2" stroke="none"></path><path d="M352.5 799.28C352.5 799.28 339.77 868.19 352.5 910.41 365.07 952.08 371.96 979.85 364.01 993.56 363.91 993.73 364.23 995.72 364.12 995.89 355.63 1009.51 379.02 1016.01 391.5 1015.92 399.97 1015.85 404.47 1015.37 412.66 1015.37 416.03 1015.37 432.92 1005.44 425.55 1001.9 417.01 997.8 409.97 991.8 408.25 979.33 405.06 956.07 412.38 925.91 421.86 889.3 431.33 852.68 433.77 825.78 433.28 793.68L352.5 799.28Z" fill="#f4b498" opacity="1" stroke-width="2" stroke="none"></path><path d="M343.89 493C323.64 516.92 300.81 534.36 284.45 594.24 268.08 654.11 246.97 757.06 215.52 768.69 215.52 768.69 223.28 802.71 256.88 804.44 290.47 806.16 297.8 797.98 319.77 799.28 341.74 800.56 363.85 828.49 386.54 831.58 430.91 837.61 438.12 814.36 456.75 804.01 487.76 786.78 509.54 795.39 513.61 798.84 519.21 803.58 506.13 766.41 495.51 732.51 487.3 706.24 486.78 665.06 480.87 624.82 473.98 577.87 465.74 545.43 442.53 513.69 433.47 501.29 424.39 485.41 409.36 482.24 386.96 477.52 364.14 469.1 343.89 493Z" fill="#443b60" opacity="1" stroke-width="2" stroke="none"></path><path d="M339.23 492.59C356.83 497.58 381.28 502.31 415.71 488.91 450.15 475.5 469.28 425.19 469.28 425.19 469.28 425.19 457.85 363.22 443.68 348.94 435.08 340.29 406.04 332.64 389.73 328.89 386.61 328.18 383.34 328.63 380.53 330.15 377.72 331.68 375.56 334.18 374.46 337.19L348.16 409 339.23 492.59Z" fill="#fa9582" opacity="1" stroke-width="2" stroke="none"></path><path d="M428.08 327.61L426.44 314.12C426.39 313.73 426.45 313.35 426.6 313 426.76 312.64 427 312.34 427.31 312.11 427.62 311.88 427.99 311.74 428.38 311.7 428.76 311.67 429.14 311.74 429.5 311.89 434.54 314.27 443.83 317.75 449.6 314.59 457.84 310.07 454.82 297.17 453.32 285.89L458.77 284.98C459.07 284.93 459.37 284.81 459.62 284.63 459.88 284.46 460.09 284.22 460.24 283.95 460.4 283.68 460.5 283.39 460.52 283.08 460.55 282.76 460.5 282.45 460.4 282.16 458.7 277.63 455 267.77 452.79 261.97 449.3 252.84 453.55 245.51 442.27 234.61 431 223.7 385.13 237.24 383.7 258.25 382.51 275.67 384.12 293.85 378.38 310.34 376.8 314.92 426.5 339.69 428.08 327.61Z" fill="#f4b498" opacity="1" stroke-width="2" stroke="none"></path><path d="M271.81 498.49C271.81 503.53 332.71 519.3 347.74 516.61 347.74 516.61 348.9 485.77 369.33 468.43 389.76 451.09 391.3 427.57 383.98 388.26 376.66 348.94 390.52 342.39 400.16 343.16 409.8 343.93 416.35 353.57 421.75 365.13 427.15 376.69 442.95 368.21 451.42 387.87 460.63 409.57 466.97 432.37 470.32 455.7 476.22 474.8 495.3 417.97 484.96 392.11 484.96 392.11 481.11 361.93 463 343.1 444.88 324.28 431.39 324.66 414.82 312.71 398.24 300.76 413.27 296.13 410.19 289.2 407.11 282.26 400.38 284.27 400.17 274.55 399.93 263.55 409.03 267.53 412.6 271.85 413.16 272.54 413.96 273 414.83 273.16 415.71 273.32 416.62 273.15 417.39 272.69 423.44 269.06 428.64 264.17 432.62 258.33 439.83 247.26 444.82 234.6 441.37 231.83 413.6 209.56 371.48 225.57 361.91 259.85 356.58 278.93 355.53 300.24 345.96 312.47 336.4 324.68 319.3 326.79 312.21 346.22 301.86 374.64 308.46 411.44 303.97 432.84 298.13 460.75 271.81 493.46 271.81 498.49Z" fill="#368bcb" opacity="1" stroke-width="2" stroke="none"></path><path d="M404.16 475.36L465.67 431.22 467.95 441.61C467.95 441.61 490 332.39 500.36 320.44 510.72 308.47 519.76 306.09 531.98 305.03 544.21 303.96 563.87 289.87 569.98 290.14 576.1 290.4 575.3 297.58 572.64 298.11 569.98 298.64 578.68 297.06 589.38 295.72 596.21 294.88 602.89 298.21 595.57 300.83 595.57 300.83 598.14 304.55 592.41 306.43 590.25 307.14 589.82 307.14 585.4 307.54 578.62 308.18 576.88 308.97 572.36 311.49 567.84 314.01 554.3 324.15 549.65 327.88 544.24 332.02 537.82 334.63 531.05 335.45 531.05 335.45 518.43 437.63 511.25 466.06 504.08 494.5 488.98 523.68 459.17 523.72 422.68 523.78 404.16 475.36 404.16 475.36Z" fill="#f4b498" opacity="1" stroke-width="2" stroke="none"></path><path d="M449.76 272.12C449.76 272.12 444.6 272.95 440.47 270.38 437.5 268.53 435.26 263.05 435.26 263.05 435.26 263.05 441.06 262.49 444.13 264.53 448.18 267.21 449.76 272.12 449.76 272.12Z" fill="#fbfbfb" opacity="1" stroke-width="2" stroke="none"></path><path d="M434.84 262.79C434.84 262.79 436.29 267.57 440.2 270.2 441.26 269.63 442.16 268.78 442.78 267.73 443.41 266.69 443.74 265.5 443.74 264.3 439.69 262.01 434.84 262.79 434.84 262.79Z" fill="#04051f" opacity="1" stroke-width="2" stroke="none"></path><path d="M362.47 1029.72H453.47C465.8 1029.72 465.54 1018.88 462.29 1015.75 458.89 1012.47 453.47 1014.45 446.26 1011.51 438.32 1008.28 431.76 1005.15 424.05 1001.15 420.71 1006.63 416.29 1011.05 405.4 1011.37 394.24 1011.7 387.65 1008.92 380.18 1001.14 372.71 993.36 369.85 992.84 364.04 993.51 364.04 993.51 363.81 993.89 363.69 994.07 355.2 1007.68 349.98 1029.72 362.47 1029.72Z" fill="#fa9582" opacity="1" stroke-width="2" stroke="none"></path><path d="M448.19 284.55C449.7 285.58 451.51 286.05 453.32 285.89" stroke="#04051f" stroke-width="2" stroke-linecap="round" stroke-linejoin="round" opacity="1" fill="none"></path><path d="M446.48 301.83C448.79 301.83 450.67 299.96 450.67 297.65 450.67 295.34 448.79 293.47 446.48 293.47 444.17 293.47 442.3 295.34 442.3 297.65 442.3 299.96 444.17 301.83 446.48 301.83Z" stroke="#04051f" stroke-width="2" stroke-linecap="round" stroke-linejoin="round" opacity="1" fill="none"></path><path d="M429.5 311.89C424.2 309.82 419.57 306.34 416.08 301.83" stroke="#04051f" stroke-width="2" stroke-linecap="round" stroke-linejoin="round" opacity="1" fill="none"></path><path d="M404.16 274.19L411.16 281.26" stroke="#04051f" stroke-width="2" stroke-linecap="round" stroke-linejoin="round" opacity="1" fill="none"></path><path d="M407.66 271.38V277.72" stroke="#04051f" stroke-width="2" stroke-linecap="round" stroke-linejoin="round" opacity="1" fill="none"></path><path d="M413.64 226.53C420.51 226.53 431.8 229.09 436.31 235.46" stroke="#04051f" stroke-width="2" stroke-linecap="round" stroke-linejoin="round" opacity="1" fill="none"></path><path d="M323.52 370.96C325.13 366.39 324.51 360.56 326.44 355.72 328.98 349.32 332.92 344.04 337.5 338.87 342.53 333.17 349.12 328.52 353.26 322.03 355.97 317.75 356.91 312.9 358.91 308.42" stroke="#04051f" stroke-width="2" stroke-linecap="round" stroke-linejoin="round" opacity="1" fill="none"></path><path d="M439.15 336.4C452.3 339.69 457.34 346.93 461.77 359.02" stroke="#04051f" stroke-width="2" stroke-linecap="round" stroke-linejoin="round" opacity="1" fill="none"></path><path d="M562.97 293.28C564.19 298.1 570.68 296.86 573.69 294.35" stroke="#04051f" stroke-width="2" stroke-linecap="round" stroke-linejoin="round" opacity="1" fill="none"></path><path d="M534.19 321.18C544.33 320.39 550.76 309.4 558.88 304.53 563.57 301.71 566.96 300.53 571.89 298.31" stroke="#04051f" stroke-width="2" stroke-linecap="round" stroke-linejoin="round" opacity="1" fill="none"></path><path d="M543.25 325.7C554.56 321.43 561.17 309.91 572.63 305.63 580.01 302.87 587.51 301.93 595.12 300.88" stroke="#04051f" stroke-width="2" stroke-linecap="round" stroke-linejoin="round" opacity="1" fill="none"></path><path d="M473.7 507.57C482.12 505.82 489.07 496.15 492.27 490.7 495.58 485.03 498.48 479.37 500.04 473.01" stroke="#04051f" stroke-width="2" stroke-linecap="round" stroke-linejoin="round" opacity="1" fill="none"></path><path d="M467.95 441.61L461.4 472.3" stroke="#04051f" stroke-width="2" stroke-linecap="round" stroke-linejoin="round" opacity="1" fill="none"></path><path d="M341.21 487.82C341.13 473.67 349.71 464.2 359.31 454.51 368.4 445.34 369.61 431.73 369.61 419.52" stroke="#04051f" stroke-width="2" stroke-linecap="round" stroke-linejoin="round" opacity="1" fill="none"></path><path d="M403.81 474.55L390.41 442.97" stroke="#04051f" stroke-width="2" stroke-linecap="round" stroke-linejoin="round" opacity="1" fill="none"></path><path d="M425.57 401.65L413.64 426.19" stroke="#04051f" stroke-width="2" stroke-linecap="round" stroke-linejoin="round" opacity="1" fill="none"></path><path d="M495.93 385.77L511.15 372.6" stroke="#04051f" stroke-width="2" stroke-linecap="round" stroke-linejoin="round" opacity="1" fill="none"></path><path d="M268.52 754.45C288.13 734.45 295.93 701.29 300.6 674.63 304.48 652.48 305.83 629.71 310.22 607.69 312.28 597.36 319.17 575.84 323.38 565.72" stroke="#04051f" stroke-width="2" stroke-linecap="round" stroke-linejoin="round" opacity="1" fill="none"></path><path d="M341.48 702.33C328.09 724.01 314.64 754.13 320.09 780.23" stroke="#04051f" stroke-width="2" stroke-linecap="round" stroke-linejoin="round" opacity="1" fill="none"></path><path d="M372.76 810.41C373.47 799.15 373.96 788.07 378.24 777 385.34 758.61 392.77 740.55 396.32 721 399.85 701.63 397.56 682.86 394.84 663.56 393.39 652.89 392.61 642.15 392.49 631.38 392.44 627.53 393.23 610.8 395.08 605.62" stroke="#04051f" stroke-width="2" stroke-linecap="round" stroke-linejoin="round" opacity="1" fill="none"></path><path d="M428.72 581.64C445.81 613.35 447.2 649.46 447.91 684.7 448.18 698.14 449.17 711.79 455.33 723.91 458.6 730.38 463.22 735.95 467.12 741.84" stroke="#04051f" stroke-width="2" stroke-linecap="round" stroke-linejoin="round" opacity="1" fill="none"></path><path d="M358.78 860.89C358.78 887.35 362.8 921.58 371.66 942.49" stroke="#04051f" stroke-width="2" stroke-linecap="round" stroke-linejoin="round" opacity="1" fill="none"></path><path d="M275.37 942.49C272.4 930.07 278.78 918.63 287 904.67" stroke="#04051f" stroke-width="2" stroke-linecap="round" stroke-linejoin="round" opacity="1" fill="none"></path><path d="M230.94 953.6C230.01 950.27 235.17 940.74 235.87 940.02" stroke="#ffffff" stroke-width="2" stroke-linecap="round" stroke-linejoin="round" opacity="1" fill="none"></path><path d="M363.03 1020.26C362.5 1017.12 362.52 1007.79 367.96 1004.21" stroke="#ffffff" stroke-width="2" stroke-linecap="round" stroke-linejoin="round" opacity="1" fill="none"></path><path d="M473.7 1029.72H295.95" stroke="#04051f" stroke-width="2" stroke-linecap="round" stroke-linejoin="round" opacity="1" fill="none"></path><path d="M336.22 1014.55H215.52" stroke="#04051f" stroke-width="2" stroke-linecap="round" stroke-linejoin="round" opacity="1" fill="none"></path><path d="M390.41 231.83C404.59 231.83 416.08 220.34 416.08 206.16 416.08 191.98 404.59 180.48 390.41 180.48 376.23 180.48 364.74 191.98 364.74 206.16 364.74 220.34 376.23 231.83 390.41 231.83Z" fill="#368bcb" opacity="1" stroke-width="2" stroke="none"></path><path d="M398.81 187.85C404.96 189.35 408.24 198.16 406.63 203.9" stroke="#04051f" stroke-width="2" stroke-linecap="round" stroke-linejoin="round" opacity="1" fill="none"></path></g></svg>