<svg xmlns="http://www.w3.org/2000/svg" width="600" height="323.9" viewBox="0 0 600 323.9"><path d="M575.9,323.9c26.24-63.17,37.51-156.35.05-216.71-25.25-40.71-52.41-53.2-95-64.95,0,0-23.93-76.48-233-23.62-57.79,14.62-105.89-7.87-174.08,1.13-34.59,4.56-63.79,29.17-70.51,66C-11.53,167.19,28.53,202.91,18,236.33c-9.86,31.46-20.35,65,5.44,87.57Z" transform="translate(0)" style="fill:#c8ebf5"/><path d="M118.38,137.4s0,.07,0,.07,0-.06,0-.08S118.38,137.32,118.38,137.4Z" transform="translate(0)" style="fill:#6d89cf"/><path d="M256.87,274.68s-7.85-9.16-.49-15c0,0,5.38-3.26,9.77-3,0,0-6.22,10.43-4.21,11.46S268,256.06,268,256.06s12.25-1.19,16.18.7c0,0-10.46,8.57-8.26,9.08s13.51-7.9,13.51-7.9,11.4,1.94,10.79,8.89-4.54,9.1-6.26,8.92-11.82-4-12-2.63,5.86,6,10.11,6.25c0,0-8,8.86-13.37,6.3s-5.8-6.61-9.12-8.13-6.17-1.51-4.8,0,7.4,3.06,9.3,6.42,3.61,5.64-1.91,4.81-14.51-4.87-14.9-9.5Z" transform="translate(0)" style="fill:#6a952f"/><path d="M294.65,267s-30.95-1.19-37.78,7.66a22.45,22.45,0,0,1-6.17,8.65l-.72,2s5.36-5.65,7.28-6C257.26,279.31,254.26,268.34,294.65,267Z" transform="translate(0)" style="fill:#476320"/><path d="M250.7,283.33A19.42,19.42,0,0,0,243.6,297l1.21.11s2.12-9.08,5.95-12.63S250.7,283.33,250.7,283.33Z" transform="translate(0)" style="fill:#476320"/><path d="M229.42,263.16s12.49-7,6.66-16.48c0,0-4.66-5.83-9.65-7.32,0,0,2.66,14.15,0,14.48s-1.83-16-1.83-16-13.16-6.33-18.32-5.83c0,0,8.16,13.82,5.5,13.49S200,231.2,200,231.2s-13.49-2.5-15.65,5.49,1.33,12,3.33,12.49,14.81.33,14.48,2-9,4.32-13.82,2.83c0,0,5.33,13.15,12.32,12.48s9.16-5,13.49-5.33,7.49.84,5.32,2-9.48.38-13,3.36-6.33,4.8.17,6.13,18.14.5,20.47-4.49Z" transform="translate(0)" style="fill:#bbdd8c"/><path d="M190.47,239.19s35,11.32,38.95,24a26.69,26.69,0,0,0,3.33,12.16v2.49s-3.66-8.49-5.66-9.65C227.09,268.16,234.92,257.17,190.47,239.19Z" transform="translate(0)" style="fill:#6a952f"/><path d="M232.75,275.32a23.06,23.06,0,0,1,2.32,18.15l-1.39-.37s1.35-11-1.47-16.5S232.75,275.32,232.75,275.32Z" transform="translate(0)" style="fill:#6a952f"/><path d="M249.29,253.52s-16.46-9.22-8.78-21.73c0,0,6.14-7.68,12.73-9.65,0,0-3.51,18.65,0,19.09s2.41-21.07,2.41-21.07,17.34-8.34,24.14-7.68c0,0-10.75,18.22-7.24,17.78s15.58-18.88,15.58-18.88,17.78-3.29,20.63,7.25-1.76,15.8-4.39,16.46-19.53.43-19.09,2.63,11.85,5.7,18.21,3.73c0,0-7,17.34-16.24,16.46s-12.07-6.59-17.77-7-9.88,1.09-7,2.63,12.51.5,17.12,4.42,8.34,6.33-.22,8.09-23.92.66-27-5.93Z" transform="translate(0)" style="fill:#8dc63f"/><path d="M300.64,221.92s-46.09,14.92-51.35,31.6a35,35,0,0,1-4.39,16v3.29s4.83-11.19,7.46-12.73C252.36,260.1,242.05,245.62,300.64,221.92Z" transform="translate(0)" style="fill:#6a952f"/><path d="M244.9,269.54s-7.11,10.79-3.06,23.93l1.83-.49s-1.77-14.47,1.94-21.75S244.9,269.54,244.9,269.54Z" transform="translate(0)" style="fill:#6a952f"/><path d="M248.73,322A32.24,32.24,0,0,0,281,289.72H216.49A32.25,32.25,0,0,0,248.73,322Z" transform="translate(0)" style="fill:#1e375a"/><path d="M281.42,323.6H216.05a4,4,0,0,1,4-4h57.41a4,4,0,0,1,4,4Z" transform="translate(0)" style="fill:#1e375a"/><rect x="215.43" y="289.72" width="66.27" height="0.99" style="fill:#172944"/><path d="M84.22,209.41a304.66,304.66,0,0,0-4.08-40.26c-2.92-15.73-5.55-24.77-5.58-24.87-.39-1.38-6-7-18.31-6.8S45.06,145,45.06,145h0a2.08,2.08,0,0,0,.09.65c.12.38,11.47,38.67,11,88.11,0,.69-.09,1.89,0,2.69,0,0,28.65.69,28.65,0C85.74,232.12,85.26,220.15,84.22,209.41Z" transform="translate(0)" style="fill:#848487"/><path d="M87.82,233.51c0,.68-.4,1.24-.88,1.24h0c-.47,0-.85-.57-.86-1.24H61.52c0,.68-.4,1.24-.88,1.24h0c-.48,0-.87-.58-.86-1.28a322.27,322.27,0,0,0-2-39c-3.27-29.09-9.3-48.53-9.39-48.8a2.46,2.46,0,0,1-.08-.65s-1.18-7.34,11.19-7.51,17.92,5.42,18.31,6.8c0,.07,1.51,5.2,3.49,14.41.66,3.05,1.36,6.55,2.09,10.46a308.31,308.31,0,0,1,4.08,40.26C88.45,220.15,88.82,229.19,87.82,233.51Z" transform="translate(0)" style="fill:#5b5b5f"/><path d="M58,234.75h96.27s-2.25-8.45-58-7.19C56.77,228.45,58,234.75,58,234.75Z" transform="translate(0)" style="fill:#323237"/><path d="M50.12,322.92c11.16-52.58,8.29-84.84,8.27-85.25,0-.81,1.58-1.54,2.44-1.57s4.73-.24,5.17.45c.59.91,2.83,40.66-13.8,86.37Z" transform="translate(0)" style="fill:#323237"/><path d="M140,322.92c-11.16-52.58-8.29-84.84-8.28-85.25,0-.81-1.58-1.54-2.44-1.57s-4.72-.24-5.17.45c-.58.91-2.83,40.66,13.8,86.37Z" transform="translate(0)" style="fill:#323237"/><path d="M157.81,322.92c-11.16-52.58-8.29-84.84-8.28-85.25,0-.81-1.57-1.54-2.44-1.57s-4.72-.24-5.17.45c-.58.91-2.83,40.66,13.81,86.37Z" transform="translate(0)" style="fill:#262629"/><path d="M68.05,322.92c11.16-52.58,8.29-84.84,8.28-85.25,0-.81,1.57-1.54,2.43-1.57s4.73-.24,5.17.45c.59.91,2.84,40.66-13.8,86.37Z" transform="translate(0)" style="fill:#323237"/><rect x="56.04" y="232.56" width="100.21" height="4.88" rx="1.99" style="fill:#5b5b5f"/><path d="M92.77,64.39c-.28-.66-3.54-7.64-14.61-3.83,0,0,5.62-1.42,7.45.59,0,0-4.77-1.52-7.39.56s-2.37,8-1.73,9.69S80.9,78,83,77.77a6,6,0,0,0,2.29-.87,27.9,27.9,0,0,0-.46,3.18C83.86,90.7,91.71,97.73,95,95.35c2.13-1.53,4.34,2.25,4.34,2.25l15.87-27.42S100.11,55.94,92.77,64.39Z" transform="translate(0)" style="fill:#9e332e"/><path d="M122.55,129c-15,6.72-26.34-17-25.36-17.24,1.51-1.7,3.06-7.76,2-16.48l.77.06,13.08,1s.2,4,.65,7.83a22.58,22.58,0,0,0,1.24,5.9c.16.3,3,.71,3,.72C118.11,111,126.56,127.18,122.55,129Z" transform="translate(0)" style="fill:#fc9290"/><path d="M218.5,323.15H192.16a14.51,14.51,0,0,1,.74-7.06c1.32-2.93,2.16-3.73.73-7.11,1.68,1.73,6.57,3,10.37,2.46.47.76,3,4.8,4.58,5.92C210.3,318.6,218,318.16,218.5,323.15Z" transform="translate(0)"/><path d="M172.12,322.92H145.77a14.44,14.44,0,0,1,.75-7.06c1.32-2.92,3.89-4.88,4.64-8.25,1.67,1.72,2.65,4.11,6.46,3.6.46.76,3,4.81,4.57,5.93C163.91,318.37,171.59,317.93,172.12,322.92Z" transform="translate(0)"/><path d="M202.84,116.17l3.07,4.26-3.48,3c-.65.55-1,.84-1,.84-1.73,1.46-3.85,3.14-6.16,5l0,0c-4,3.1-8.62,6.51-12.79,9.15l-1.12.68a37.94,37.94,0,0,1-6.76,3.34,3.83,3.83,0,0,1-.65.18c-5.53,1.49-16.68-.45-27.62-3.79-1.51-.45-3-.94-4.46-1.41a107.58,107.58,0,0,1-14.54-5.94,43.49,43.49,0,0,1-6.24-3.67,18.14,18.14,0,0,1-1.6-1.24c-8.88-7.27-4.7-14.33-3-14.34a36.13,36.13,0,0,1,8.48,1.4c5.39,1.46,12,3.76,18.53,6.17,3.57,1.31,7.12,2.65,10.45,3.81,2,.75,3.89,1.41,5.65,2a55.3,55.3,0,0,0,8.09,2.26c1.26.21,3.61-.24,6.48-1,.76-.21,1.57-.44,2.4-.69,4.63-1.41,10.19-3.47,15-5.39,2.38-.93,4.59-1.84,6.43-2.6C200.9,117,202.84,116.17,202.84,116.17Z" transform="translate(0)" style="fill:#fc9290"/><path d="M81.06,199.2s-5.91,18.43,7.28,27.16c17.68,11.71,66.68,1.73,72.27,7.71,1.42,1.52-2.87,2.28-5.28,23.94-3.48,31.13-6.29,48.55-6.29,48.55a8,8,0,0,0,4.31,5.4,9.32,9.32,0,0,0,5.52.46s36-79,32.41-90c-6.21-19-40.58-17.12-80.43-28.34C86.52,187.24,81.06,199.2,81.06,199.2Z" transform="translate(0)"/><path d="M99.71,198.8c17.5-1.62,65.24-2.44,75.57,4.66,12.71,8.73,30,108.57,30,108.57a8.45,8.45,0,0,1-4.22,1.34c-2.68.26-8.52-1.46-8.52-1.46s-28.39-45-30.1-56.22-.83-21.25-5.63-21.59S86,241.37,80.37,223.31c-4.4-14.11.88-27.75.88-27.75S83.57,200.29,99.71,198.8Z" transform="translate(0)" style="fill:#333"/><path d="M136.09,141c1.09,4,2,7.51,2.41,9.91,2,11,3.78,44.7,3.78,44.7-17.87,27.58-67.61,19.29-67.61,19.29-1.1-10.46,3.1-33.72,5.65-54.42.63-5.07,1.15-10,1.48-14.52a89.75,89.75,0,0,1,1.35-10.59c4.24-22.12,15.15-24.55,15.15-24.55,5.1,9.91,21.19,12.57,21.19,12.57a54.29,54.29,0,0,0-1.61-12.67c2,.24,8.83,1.27,10.77,2,2.29.84,21.35,9.53,21.35,9.53A19.53,19.53,0,0,1,136.09,141Z" transform="translate(0)" style="fill:#6ca5cf"/><path d="M113,96.28s.2,4,.65,7.84c-7.16.67-11.74-5.39-13.73-8.81Z" transform="translate(0)" style="fill:#ea8888"/><path d="M115.82,99.57S99,101.91,97.66,91.39,93.31,74.08,104,72.13s13.31,1.82,14.59,5.23S120.18,98.69,115.82,99.57Z" transform="translate(0)" style="fill:#fc9290"/><path d="M117.4,71.57c-3-2.85-4.89-1.91-5.88-.83A11.89,11.89,0,0,0,96.63,75,20.25,20.25,0,0,1,91.5,87.71s3.31,1.53,10.19-1.16A12.26,12.26,0,0,0,107,81.87,40,40,0,0,1,101.19,91c8-5,10-17.17,10.15-18.46,1.15.8,3.42,2.56,4.29,4.46,1.17,2.58,2.22,8.05,3.8,7.67C119.43,84.66,121.89,75.84,117.4,71.57Z" transform="translate(0)" style="fill:#9e332e"/><path d="M202.84,116.17a16,16,0,0,0,2.34-2.59c.85-1.29,1.2-2.58,2.83-3.69s3.44-4,3.69-3.53-.85,3.7-.77,4,4.64,1.33,6.36.84,6-1.87,5.93-1-4.64,5.67-6.1,6.53-5.84.6-7.56,1.2a12.72,12.72,0,0,0-3.65,2.47Z" transform="translate(0)" style="fill:#fc9290"/><path d="M214.11,111.83s4.47-3.61,6.42-3.15l-3.21,3.15Z" transform="translate(0)" style="fill:#fc9290"/><path d="M218,115.61l6.75-4.52a4.23,4.23,0,0,0-2.62,0C220.77,111.56,218,115.61,218,115.61Z" transform="translate(0)" style="fill:#fc9290"/><path d="M119.12,195.89c-.29-.16-34.57,3.59-38.8-35.4.63-5.07,1.15-10,1.48-14.52a89.75,89.75,0,0,1,1.35-10.59c3.08-.48,6.78,2.84,8.44,7.77C95,153.29,119,195.47,119.12,195.89Z" transform="translate(0)" style="fill:#3b87bf"/><path d="M140.52,197.42l-1.9,4.9-4.4-1.29c-.81-.25-1.27-.41-1.27-.41-2.16-.66-4.74-1.52-7.55-2.45h0c-4.8-1.68-10.17-3.67-14.65-5.73l-1.18-.56a38,38,0,0,1-6.48-3.85,4.22,4.22,0,0,1-.51-.45c-4.26-3.82-8.72-14.23-11.89-25.22-.44-1.51-.84-3-1.24-4.5a107.27,107.27,0,0,1-3-15.43,41.77,41.77,0,0,1-.33-7.23,17.72,17.72,0,0,1,.17-2c1.25-11.41,9.45-11.76,10.38-10.35a36.4,36.4,0,0,1,3.44,7.88c1.72,5.31,3.41,12.13,4.94,18.89.85,3.71,1.66,7.42,2.5,10.85.46,2.07.94,4,1.39,5.83a56.29,56.29,0,0,0,2.51,8c.52,1.17,2.17,2.89,4.4,4.87.59.53,1.22,1.07,1.89,1.64,3.7,3.11,8.46,6.65,12.7,9.65,2.08,1.49,4.05,2.85,5.68,4C138.77,196.24,140.52,197.42,140.52,197.42Z" transform="translate(0)" style="fill:#fc9290"/><path d="M140.07,197.58s8.55-2.42,10.59-1.85,9,5.18,8,6.44-7.13-.75-10-.37-5,1.77-7,1.47a23.61,23.61,0,0,1-4.16-1.1Z" transform="translate(0)" style="fill:#fc9290"/><path d="M140.07,197.58s4.18-2.15,5.37-3.37a.34.34,0,0,1,.52.06c.32.5.62,1.47-.85,2.44A7.87,7.87,0,0,1,140.07,197.58Z" transform="translate(0)" style="fill:#fc9290"/><path d="M95.65,119.16s-8,3.88-10.75,9.17-3.12,22.22,1.18,44.22a31.86,31.86,0,0,0,21.48-12.11S104.41,116,95.65,119.16Z" transform="translate(0)" style="fill:#6ca5cf"/><path d="M98.92,107.35S96,109.16,96,111.84c0,0,3.43,9.38,23.48,11.56C119.49,123.4,101,114.33,98.92,107.35Z" transform="translate(0)" style="fill:#3b87bf"/><path d="M114.58,109.59s5,9.29,4.91,13.81c0,0,.34-10.28-.37-12.67s-5-3.38-5-3.38Z" transform="translate(0)" style="fill:#3b87bf"/><path d="M110.86,94a5.63,5.63,0,0,0,3.89,1c2.12-.4,2.1-2.06,2.1-2.06a9.38,9.38,0,0,0-2.71,0A22.15,22.15,0,0,0,110.86,94Z" transform="translate(0)" style="fill:#fff"/><rect x="327.38" y="232.06" width="241.97" height="13.55" rx="5.53" style="fill:#5b5b5f"/><path d="M557.55,322.86h-1.73l-13.38-50.64h0l-3-11.52h0l-3.95-14.93,7.88-.14L546,260.2l2,10.92a.76.76,0,0,0,0,.16Z" transform="translate(0)" style="fill:#5b5b5f"/><path d="M546,260.2a21.7,21.7,0,0,0-3.58,12l-3-11.52h0l-3.95-14.93,7.88-.14Z" transform="translate(0)" style="fill:#323237"/><path d="M336,322.86h1.72l13.38-50.64h0l3-11.52h0l3.94-14.93-7.88-.14-2.68,14.59-2,10.92,0,.16Z" transform="translate(0)" style="fill:#5b5b5f"/><path d="M347.57,260.2a21.71,21.71,0,0,1,3.57,12l3-11.52h0l3.94-14.93-7.88-.14Z" transform="translate(0)" style="fill:#323237"/><path d="M428.24,169.28s-2.68-4.73-3.83-5.83-2.78-4.4-3.53-3.73.73,3,.15,3.89-7.91-.77-8.37.26a4.33,4.33,0,0,0,2.51,5.16c2.65.95,9.76,2.54,10.75,3.83S428.24,169.28,428.24,169.28Z" transform="translate(0)" style="fill:#fc9290"/><path d="M501.39,131.68s-4.34-2-17.87,10.27-22.81,25-30,25.59-25.9.59-25.9.59l-2.08,4.37s-.35,1.68,11.1,5.33a100.37,100.37,0,0,0,23.12,4c9.27-1.12,31.5-16,34.88-20.41S501.39,131.68,501.39,131.68Z" transform="translate(0)" style="fill:#0a69af"/><path d="M403.37,266.26a42.55,42.55,0,0,1-.44,8.88c-1.82,14.62-7.78,38-7.78,38l-7.46.9c.55-4.12-1-19.93-3.07-37.45-3.11-26.43-7.39-56.76-7.39-56.76s16.25-13.42,25.82-9.71S402.24,256,403.37,266.26Z" transform="translate(0)" style="fill:#ea8888"/><path d="M402.93,275.14c-1.82,14.62-7.78,38-7.78,38l-7.46.9c.55-4.12-1-19.93-3.07-37.45,2.66.47,9.86,1.39,15.89-.88A7.8,7.8,0,0,1,402.93,275.14Z" transform="translate(0)" style="fill:#fff"/><path d="M396.1,111.3a10.84,10.84,0,0,0-8.35,0c-4.41,1.89-7.63,9.93-5.65,17.43s-4.7,7.64-1.61,13.66c1.1,2.14,15.61,4,16.1-4.36.31-5.16-4.35-5.41-3-11S396.1,111.3,396.1,111.3Z" transform="translate(0)"/><path d="M416.93,264.66c.44,2.53.32,6.76-.1,11.69-1.27,14.9-5.32,36.2-5.32,36.2l-7.38,1.71c.28-4.08-2.13-19.41-5.17-36.57-4.73-26.68-11-57.78-11-57.78s15.39-14.41,25.17-11.29S415.18,254.51,416.93,264.66Z" transform="translate(0)" style="fill:#fc9290"/><path d="M387.78,312.54a8.69,8.69,0,0,1-5.15,4,8.46,8.46,0,0,0-5.07,3.16,2,2,0,0,0,1.61,3.15l17.17-.1a2.46,2.46,0,0,0,2.44-2.73c-.14-1.27-.28-2.75-.34-3.88-.14-2.48-2.83-4.71-2.83-4.71a17.22,17.22,0,0,1-3.26,1.51A12.13,12.13,0,0,1,387.78,312.54Z" transform="translate(0)" style="fill:#9e332e"/><path d="M384.51,147.16S373.29,166.07,371,181.49c0,0,5.46,7.36,7.67,2.19S396.85,150.84,384.51,147.16Z" transform="translate(0)" style="fill:#fc9290"/><path d="M386.65,113.58c.12-.2,5.14-8.13,14.52-9.72a13.88,13.88,0,0,1,15.88,11.71c1.18,7.66,0,17.58-12.51,21.15Z" transform="translate(0)"/><path d="M388.94,147.7l14.14,8.4,3.57-9.95a31.21,31.21,0,0,1-2.12-9.43,38.72,38.72,0,0,1,.23-8.36l-12.29,5.34a23.54,23.54,0,0,1,.3,2.75,20,20,0,0,1-.61,6.36A8.85,8.85,0,0,1,388.94,147.7Z" transform="translate(0)" style="fill:#fc9290"/><path d="M392.16,142.81c6.78.25,12.38-6.09,12.38-6.09l-11.77-.27A20,20,0,0,1,392.16,142.81Z" transform="translate(0)" style="fill:#ea8888"/><path d="M389.12,138.83s13.28,4.42,18.62-6c5.76-11.27.78-20.06-3.77-20.92-9.07-1.72-14.6,1.43-16.44,5S381.79,136.45,389.12,138.83Z" transform="translate(0)" style="fill:#fc9290"/><path d="M394.86,133.12s-.66,1.36-4.17.35c0,0-2.95-.84-2.51-2.4A9.85,9.85,0,0,1,394.86,133.12Z" transform="translate(0)" style="fill:#fff"/><path d="M422.77,255.42c-3.83,3.67-32.17,11.25-48.14,5.8-2.86-1,1.72-89.29,4.45-106.34a10.74,10.74,0,0,1,9.15-8.95q1.18-.17,2.58-.3c-.2,2.09.52,4.06,4.17,4.78,4.87,1,9.47-2.12,11.83-4.25,3.81.79,6,1.08,9.05,2.35a8,8,0,0,1,4.81,8.39l-.92,6.73-2.91,21.46a28.26,28.26,0,0,0,.07,8.11c1.23,8.16,3.2,28,4.52,43.13C422.36,247,423,255.23,422.77,255.42Z" transform="translate(0)" style="fill:#50bed2"/><path d="M421.43,236.33c-.42-.49-27.29-31.84-28.26-48.52s13.48-29.1,13.48-29.1c5.76-.38,10,1.51,13.1,4.92l-2.91,21.46a28.26,28.26,0,0,0,.07,8.11C418.14,201.36,420.11,221.22,421.43,236.33Z" transform="translate(0)" style="fill:#3c8f9e"/><path d="M398.42,113.13S397.16,125.58,409,130c4.7,1.75,7.14-17.27-2.67-21.07s-19.5.71-20.66,7.35-.28,8-.28,8S390,111.67,398.42,113.13Z" transform="translate(0)"/><path d="M405.6,153.87s-5.42,21.43-5.63,30c0,0-11.9,20.77-12.59,22.24s4.29,3.5,4.29,3.5,14.92-15.91,17.79-22.6,13.08-28.43,9-34.92S405.6,153.87,405.6,153.87Z" transform="translate(0)" style="fill:#fc9290"/><path d="M371,181.49s-1.07,14.6,9.32,26.1c0,0,2.84-3.42,2.48-4.47s-4.42-17.34-7.39-19.65S371,181.49,371,181.49Z" transform="translate(0)" style="fill:#fc9290"/><path d="M387.37,206.07s-6.65,0-7,1.52,1.71,6.46,6.58,4.75,4.74-2.77,4.74-2.77Z" transform="translate(0)" style="fill:#fc9290"/><path d="M382.83,203.12s5.35,2.46,3.53,5.1-5.44,1.05-6-.63S382.83,203.12,382.83,203.12Z" transform="translate(0)" style="fill:#fc9290"/><path d="M401.68,165.18a24.29,24.29,0,0,0,17.73,5.48s5.3-18.78-3.2-21.08S400.69,158.4,401.68,165.18Z" transform="translate(0)" style="fill:#50bed2"/><path d="M380.85,150.46,374.7,161s.79,4.87,5.39,5.36S380.85,150.46,380.85,150.46Z" transform="translate(0)" style="fill:#50bed2"/><path d="M413.09,111.41a9.71,9.71,0,0,1,8.34,0c4.42,2.12,7.63,11.17,5.65,19.63s4.7,8.59,1.61,15.37c-1.09,2.41-15.6,4.45-16.1-4.91-.31-5.8,4.36-6.09,3-12.39S413.09,111.41,413.09,111.41Z" transform="translate(0)"/><path d="M416.83,276.35c-1.27,14.9-5.32,36.2-5.32,36.2l-7.38,1.71c.28-4.08-2.13-19.41-5.17-36.57C402.9,278.1,410.15,278.42,416.83,276.35Z" transform="translate(0)" style="fill:#fff"/><path d="M403.92,312.54a8.69,8.69,0,0,1-5.15,4,8.49,8.49,0,0,0-5.07,3.16,2,2,0,0,0,1.61,3.15l17.17-.1a2.46,2.46,0,0,0,2.44-2.73c-.13-1.27-.28-2.75-.34-3.88-.14-2.48-2.83-4.71-2.83-4.71a16.91,16.91,0,0,1-3.26,1.51A12.13,12.13,0,0,1,403.92,312.54Z" transform="translate(0)" style="fill:#a83f3f"/><path d="M498.76,90.63s-.25-8.82,11.39-10.55,14.84,1,16.82,4,5.69,15.09,5.32,19.91-13.64,10.78-13.43,13.59S498.76,90.63,498.76,90.63Z" transform="translate(0)" style="fill:#4f1a17"/><path d="M446.94,316.49c.23,2.94-3.87,3.6-8.61,3.78s-3.33,1.16-9.84,2.25-9.09-.72-9.55-1.6,2.63-2,5.86-3.3l1.23-.51c3.64-1.54,5.72-4.77,8.58-7.74,2.71-2.82,5.37-11.92,5.37-11.92l8.85-1.77s-2.58,8.19-3.49,11.69c-.53,2.05.19,4.37.83,6.14A11.67,11.67,0,0,1,446.94,316.49Z" transform="translate(0)" style="fill:#fc9290"/><path d="M438.33,320.27c-4.75.17-3.33,1.16-9.84,2.25s-9.09-.72-9.55-1.6,2.63-2,5.86-3.3l.05.06a18.48,18.48,0,0,0,9.84.24c4.32-1.11,8.5-3.62,11.48-4.41a11.67,11.67,0,0,1,.77,3C447.17,319.43,443.07,320.09,438.33,320.27Z" transform="translate(0)" style="fill:#e75755"/><path d="M515.07,206.12s-58.75,3.08-68.82,11.4-12.38,90.32-12.38,90.32c1.42,1.6,2.53,1.62,4.91,1.55s7-1.75,7-1.75,14.49-39.61,15.11-48.92,3.37-25,7.39-25.74,51.1,6.8,57-7.63-2.11-26.94-2.11-26.94Z" transform="translate(0)"/><path d="M542.67,220.7c-2.53,1.69-9,2.63-16.63,2.9-13.56.49-30.48-1.13-33.81-4.27a5.76,5.76,0,0,1-1.4-3.87c-.37-5.2,2.12-13.76,3.78-20.84,1.09-4.6,1.83-8.58,1.22-10.61-1.84-6.19-7.55-18.79-8.05-22.94s4.45-26.33,11.29-29.08,33.22,0,33.22,0c10.3,2.09,10.74,24.06,7.31,42.77l-.27,1.43C535.62,195.18,549.72,216,542.67,220.7Z" transform="translate(0)" style="fill:#0a69af"/><path d="M503.61,133.9c.19,1.2,3.49,3.16,10.54,1.3,6.76-1.78,7.57-4,7.57-5.43,0-1.72-2.94-4-2.9-14.62l-.81.16L504.38,118s.31,4.29.32,8.33C504.71,129.72,503.31,131.89,503.61,133.9Z" transform="translate(0)" style="fill:#fc9290"/><path d="M504.38,118s.31,4.29.32,8.33c7.63-.22,11.66-7.17,13.31-11Z" transform="translate(0)" style="fill:#ea8888"/><path d="M501.84,121.83s18,.29,18.05-10.94,2.35-18.76-9.17-19.43S497,95.08,496.05,98.83,497.15,121.46,501.84,121.83Z" transform="translate(0)" style="fill:#fc9290"/><path d="M502.51,91.19s4.93,13.18,12.51,15.13,10.87-.09,10.87-.09a21.44,21.44,0,0,1-7-12.67S506.23,84.91,502.51,91.19Z" transform="translate(0)" style="fill:#4f1a17"/><path d="M503.73,92.26s-3.69,2.94-4.59,5.8-1.3,8.75-3,8.55c0,0-3.72-9,.46-14C501,87.21,503.73,92.26,503.73,92.26Z" transform="translate(0)" style="fill:#4f1a17"/><path d="M505.85,115s-.34,1.42-3.89,1.2c0,0-3-.18-2.89-1.75A9.56,9.56,0,0,1,505.85,115Z" transform="translate(0)" style="fill:#fff"/><path d="M485.75,319.7c-.1,2.95-4.25,3.15-9,2.78s-3.44.78-10,1.13-8.95-1.75-9.31-2.68,2.84-1.65,6.2-2.61l1.28-.37c3.79-1.12,6.22-4.09,9.4-6.72,3-2.49-2.73-15.55-2.73-15.55l8.55-3.65s1.14,9.18,2.78,17.24c.43,2.08,2,5.56,2.41,7.38A11.23,11.23,0,0,1,485.75,319.7Z" transform="translate(0)" style="fill:#fc9290"/><path d="M542.67,220.7c-2.53,1.69-9,2.63-16.63,2.9-12.5-2.85-26.74-6.16-35.21-8.14-.37-5.2,2.12-13.76,3.78-20.84,9.88,3,24.58-7.26,29.52-11.32,5.19-4.26,5-18.48,5-18.48l10.44,9.94-.27,1.43C535.62,195.18,549.72,216,542.67,220.7Z" transform="translate(0)" style="fill:#084f83"/><path d="M476.77,322.48c-4.73-.36-3.44.78-10,1.13s-8.95-1.75-9.31-2.68,2.84-1.65,6.2-2.61l.05.06a18.42,18.42,0,0,0,9.74,1.36c4.41-.61,8.86-2.64,11.9-3.09a11.23,11.23,0,0,1,.43,3.05C485.65,322.65,481.5,322.85,476.77,322.48Z" transform="translate(0)" style="fill:#e75755"/><path d="M527.51,210.24c-14.82-1.14-59.32.15-68.15,6-10.86,7.25,15.33,90.31,15.33,90.31h8.41S488,258.36,485,248.73c-2.8-8.89-4.63-12.08-.55-12.4s54.31,8.5,59.27-6.29c3.87-11.55-.46-22.63-.46-22.63S541.19,211.3,527.51,210.24Z" transform="translate(0)" style="fill:#333"/><path d="M532.29,132s10.32.87,11.12,9c.61,6.2,5.1,50.14,1.87,54-9.1,10.76-39.44,13-43.91,14.67l-1.22-5.09s32.38-16.32,31.89-20S522.39,130.52,532.29,132Z" transform="translate(0)" style="fill:#0a69af"/><path d="M521.35,84.51s-.74-4.7,5.79-5.92,6.65,12.65,7.35,16-1,5.35-3.54,5.55S521.35,84.51,521.35,84.51Z" transform="translate(0)" style="fill:#4f1a17"/><path d="M499.79,204.34s-9.22-2.61-11.42-2-9.72,5.59-8.66,6.95,7.69-.81,10.74-.4,5.41,1.91,7.61,1.59a26,26,0,0,0,4.49-1.19Z" transform="translate(0)" style="fill:#fc9290"/><path d="M499.79,204.34S495.28,202,494,200.7a.36.36,0,0,0-.56.06c-.35.55-.67,1.59.91,2.64A8.5,8.5,0,0,0,499.79,204.34Z" transform="translate(0)" style="fill:#fc9290"/></svg>